<svg width="233" height="134" viewBox="0 0 233 134" fill="none" xmlns="http://www.w3.org/2000/svg">
<g filter="url(#filter0_d_209_118)">
<path d="M82.0184 83.7053C82.0184 83.7053 50.7607 63.4962 52.1815 60.3652C53.6023 57.2343 87.4174 35.602 89.6907 29.3401C91.964 23.0781 89.1224 12.8312 84.0075 9.41562C78.8926 6 74.6302 5.89458 66.3895 7.42317C58.1489 8.95177 12.8382 46.9874 10.1258 51.2569C7.41332 55.5264 7 57.2343 7 60.3652C7 63.4962 7.56829 67.7657 10.1258 71.7506C12.6832 75.7355 62.1271 113.877 66.3895 116.154C70.6519 118.431 75.4827 119 80.8817 119C86.2808 119 94.2373 118.431 99.3521 114.161C104.467 109.892 108.796 104.484 111.003 98.2217C113.209 91.9597 121.07 31.6171 124.358 23.932C127.646 16.2469 131.178 13.1159 136.009 9.98489C140.84 6.8539 144.534 6 151.069 6C157.605 6 163.572 8.84635 167.551 10.8388C171.529 12.8312 221.541 43.0025 224.383 53.8186C227.224 64.6348 226.051 66.0579 222.962 73.1738C219.873 80.2897 176.075 112.738 168.971 115.869C161.867 119 151.354 120.423 145.67 112.453C139.987 104.484 143.965 94.2368 148.512 88.8287C153.058 83.4207 179.201 66.3426 180.338 62.927C181.474 59.5113 152.49 42.4333 152.49 42.4333" stroke="#008F73" stroke-width="11" stroke-linecap="round"/>
</g>
<defs>
<filter id="filter0_d_209_118" x="0.5" y="0.5" width="231.999" height="133" filterUnits="userSpaceOnUse" color-interpolation-filters="sRGB">
<feFlood flood-opacity="0" result="BackgroundImageFix"/>
<feColorMatrix in="SourceAlpha" type="matrix" values="0 0 0 0 0 0 0 0 0 0 0 0 0 0 0 0 0 0 127 0" result="hardAlpha"/>
<feOffset dy="8"/>
<feGaussianBlur stdDeviation="0.5"/>
<feComposite in2="hardAlpha" operator="out"/>
<feColorMatrix type="matrix" values="0 0 0 0 0 0 0 0 0 0.3625 0 0 0 0 0.29 0 0 0 1 0"/>
<feBlend mode="normal" in2="BackgroundImageFix" result="effect1_dropShadow_209_118"/>
<feBlend mode="normal" in="SourceGraphic" in2="effect1_dropShadow_209_118" result="shape"/>
</filter>
</defs>
</svg>
