<svg width="188" height="194" viewBox="0 0 188 194" fill="none" xmlns="http://www.w3.org/2000/svg">
<path fill-rule="evenodd" clip-rule="evenodd" d="M122.579 -56.1661L133.401 14.1715C134.56 24.4716 136.879 45.0718 127.831 57.1738C118.783 69.2758 98.368 72.8795 90.4565 85.8313C82.5451 98.7831 87.1368 121.083 78.0887 133.185C69.0405 145.287 44.7266 148.356 35.0087 148.143C25.2907 147.93 -9.16782 142.14 -9.16782 142.14L-83.1517 68.2873L-78.6276 62.2363C-74.1036 56.1853 -65.0555 44.0834 -56.0074 31.9814C-46.9592 19.8794 -37.9111 7.77745 -28.863 -4.32452C-19.8149 -16.4265 -10.7668 -28.5285 -1.71866 -40.6305C7.32946 -52.7324 16.3776 -64.8344 20.9016 -70.8854L25.4257 -76.9364L122.579 -56.1661Z" fill="#006E58"/>
<path fill-rule="evenodd" clip-rule="evenodd" d="M92.2266 -122.524L117.823 -24.424C120.683 -10.1632 136.435 15.4091 124.808 30.9606C113.181 46.512 72.2955 51.6627 62.4032 68.5111C52.5108 85.3596 61.7008 116.475 50.0737 132.027C38.4466 147.578 3.79596 148.975 -10.2199 147.559C-24.2358 146.144 -74.5166 134.216 -74.5166 134.216L-189.576 24.3695L-183.762 16.5938C-177.948 8.81803 -166.321 -6.7334 -154.694 -22.2848C-143.067 -37.8363 -131.44 -53.3877 -119.813 -68.9392C-108.186 -84.4906 -96.5585 -100.042 -84.9314 -115.594C-73.3042 -131.145 -61.6771 -146.696 -55.8635 -154.472L-50.05 -162.248L92.2266 -122.524Z" stroke="#008F73" stroke-width="2"/>
<path fill-rule="evenodd" clip-rule="evenodd" d="M124.299 -155.421L121.547 -72.3585C120.68 -60.1069 132.256 -34.0271 119.883 -17.478C107.51 -0.928867 71.1879 6.08955 59.8788 23.4341C48.5696 40.7786 48.9629 66.8726 36.5898 83.4217C24.2168 99.9708 -2.93708 108.724 -13.4924 110.477C-24.0476 112.23 -60.4327 112.339 -60.4327 112.339L-125.843 38.0844L-119.656 29.8098C-113.47 21.5352 -101.097 4.98611 -88.7235 -11.563C-76.3505 -28.1121 -63.9774 -44.6612 -51.6044 -61.2104C-39.2313 -77.7595 -26.8583 -94.3086 -14.4852 -110.858C-2.11215 -127.407 10.2609 -143.956 16.4474 -152.231L22.634 -160.505L124.299 -155.421Z" stroke="#008F73" stroke-width="2"/>
</svg>
