<svg width="183" height="228" viewBox="0 0 183 228" fill="none" xmlns="http://www.w3.org/2000/svg">
<path fill-rule="evenodd" clip-rule="evenodd" d="M250.03 143.316L179.095 137.594C168.805 136.342 148.227 133.838 138.543 122.239C128.859 110.639 130.07 89.9443 119.296 79.2544C108.523 68.5645 85.7655 67.8795 76.0815 56.2801C66.3976 44.6807 69.0297 20.3156 71.4818 10.9097C73.9339 1.50377 87.5297 -30.6844 87.5297 -30.6844L176.478 -85.6028L181.32 -79.8031C186.162 -74.0034 195.846 -62.4039 205.53 -50.8045C215.214 -39.2051 224.897 -27.6056 234.581 -16.0062C244.265 -4.4067 253.949 7.19276 263.633 18.7922C273.317 30.3917 283.001 41.9911 287.843 47.7908L292.685 53.5906L250.03 143.316Z" fill="#006E58"/>
<path fill-rule="evenodd" clip-rule="evenodd" d="M321.605 129.117L220.245 131.354C205.71 130.842 177.19 140.26 164.745 125.354C152.301 110.449 156.736 69.4793 142.629 55.9618C128.523 42.4443 96.1255 44.1964 83.6813 29.2907C71.2371 14.3851 77.8844 -19.6506 82.5 -32.9602C87.1156 -46.2698 110.338 -92.4342 110.338 -92.4342L243.796 -179L250.018 -171.547C256.241 -164.094 268.685 -149.189 281.129 -134.283C293.573 -119.377 306.017 -104.472 318.462 -89.5659C330.906 -74.6602 343.35 -59.7545 355.794 -44.8488C368.238 -29.9431 380.683 -15.0374 386.905 -7.58457L393.127 -0.131737L321.605 129.117Z" stroke="#008F73" stroke-width="2"/>
<path fill-rule="evenodd" clip-rule="evenodd" d="M269.19 176.668L189.011 154.799C177.291 151.125 149.243 156.362 136 140.5C122.757 124.638 124.321 87.6771 110.059 72.6665C95.7967 57.6559 70.3179 52.0095 57.0753 36.1476C43.8328 20.2857 41.5904 -8.15587 42.3234 -18.8306C43.0564 -29.5054 51.3579 -64.9309 51.3579 -64.9309L138.716 -111.415L145.337 -103.484C151.959 -95.5527 165.201 -79.6908 178.444 -63.8289C191.686 -47.9669 204.929 -32.105 218.171 -16.2431C231.414 -0.381138 244.656 15.4808 257.899 31.3428C271.141 47.2047 284.384 63.0666 291.005 70.9976L297.626 78.9286L269.19 176.668Z" stroke="#008F73" stroke-width="2"/>
</svg>
