<svg width="428" height="648" viewBox="0 0 428 648" fill="none" xmlns="http://www.w3.org/2000/svg">
<path fill-rule="evenodd" clip-rule="evenodd" d="M525 562L469 647C439.5 651 371.053 607.316 357.5 570.5C343.948 533.683 374.884 431.826 360 395.5C345.116 359.174 -254.947 387.816 -268.5 351C-282.052 314.184 290.937 265.584 293.294 249.088C294.299 242.054 389.844 210 396 143.5C405.165 44.4998 516.408 -25.3589 516.408 -25.3589L734.908 283.141L791.908 473.141C798.684 491.549 447.985 256.948 461.537 293.765C475.09 330.581 488.642 367.398 502.194 404.214C515.747 441.031 529.299 477.847 542.852 514.663C556.404 551.48 569.957 588.296 576.733 606.705L583.509 625.113L525 562Z" fill="#006E58"/>
</svg>
