<svg width="12" height="12" viewBox="0 0 12 12" fill="none" xmlns="http://www.w3.org/2000/svg">
<path d="M12 0.947301V9.15724C12 9.40848 11.9002 9.64943 11.7226 9.82709C11.5449 10.0047 11.304 10.1045 11.0528 10.1045C10.8016 10.1045 10.5607 10.0047 10.3831 9.82709C10.2054 9.64943 10.1056 9.40848 10.1056 9.15724V3.23661L1.61974 11.7221C1.4418 11.9 1.20046 12 0.948819 12C0.697177 12 0.455841 11.9 0.277903 11.7221C0.0999647 11.5441 0 11.3027 0 11.0511C0 10.7994 0.0999647 10.558 0.277903 10.3801L8.76381 1.8946H2.84396C2.59275 1.8946 2.35184 1.7948 2.17421 1.61714C1.99658 1.43949 1.89678 1.19854 1.89678 0.947301C1.89678 0.696061 1.99658 0.455111 2.17421 0.277458C2.35184 0.0998045 2.59275 0 2.84396 0H11.0528C11.304 0 11.5449 0.0998045 11.7226 0.277458C11.9002 0.455111 12 0.696061 12 0.947301Z" fill="currentColor"/>
</svg>
