<svg width="24" height="24" viewBox="0 0 24 24" fill="none" xmlns="http://www.w3.org/2000/svg">
<g clip-path="url(#clip0_12_383)">
<path d="M21.5 4.00008H18.8334V6.00008C18.8334 6.19268 18.7954 6.3834 18.7217 6.56135C18.648 6.73929 18.54 6.90097 18.4038 7.03717C18.2676 7.17336 18.1059 7.28139 17.928 7.3551C17.75 7.42881 17.5593 7.46674 17.3667 7.46674C17.1741 7.46674 16.9834 7.42881 16.8054 7.3551C16.6275 7.28139 16.4658 7.17336 16.3296 7.03717C16.1934 6.90097 16.0854 6.73929 16.0117 6.56135C15.938 6.3834 15.9 6.19268 15.9 6.00008V4.00008H8.13336V6.00008C8.13336 6.38906 7.97884 6.76211 7.70379 7.03717C7.42873 7.31222 7.05568 7.46674 6.6667 7.46674C6.27771 7.46674 5.90466 7.31222 5.62961 7.03717C5.35455 6.76211 5.20003 6.38906 5.20003 6.00008V4.00008H2.53336C2.37471 3.99827 2.21731 4.0283 2.07046 4.08838C1.92362 4.14847 1.79032 4.23739 1.67844 4.34989C1.56656 4.4624 1.47838 4.59619 1.4191 4.74336C1.35983 4.89054 1.33068 5.0481 1.33336 5.20674V20.1267C1.33071 20.2826 1.35879 20.4374 1.41599 20.5824C1.47319 20.7274 1.5584 20.8597 1.66674 20.9718C1.77508 21.0838 1.90443 21.1734 2.04741 21.2355C2.19038 21.2975 2.34419 21.3308 2.50003 21.3334H21.5C21.6559 21.3308 21.8097 21.2975 21.9527 21.2355C22.0956 21.1734 22.225 21.0838 22.3333 20.9718C22.4417 20.8597 22.5269 20.7274 22.5841 20.5824C22.6413 20.4374 22.6693 20.2826 22.6667 20.1267V5.20674C22.6693 5.0509 22.6413 4.89607 22.5841 4.75108C22.5269 4.60609 22.4417 4.47379 22.3333 4.36174C22.225 4.24968 22.0956 4.16007 21.9527 4.09802C21.8097 4.03596 21.6559 4.00268 21.5 4.00008ZM6.6667 17.3334H5.33336V16.0001H6.6667V17.3334ZM6.6667 14.0001H5.33336V12.6667H6.6667V14.0001ZM6.6667 10.6667H5.33336V9.33341H6.6667V10.6667ZM10.6667 17.3334H9.33336V16.0001H10.6667V17.3334ZM10.6667 14.0001H9.33336V12.6667H10.6667V14.0001ZM10.6667 10.6667H9.33336V9.33341H10.6667V10.6667ZM14.6667 17.3334H13.3334V16.0001H14.6667V17.3334ZM14.6667 14.0001H13.3334V12.6667H14.6667V14.0001ZM14.6667 10.6667H13.3334V9.33341H14.6667V10.6667ZM18.6667 17.3334H17.3334V16.0001H18.6667V17.3334ZM18.6667 14.0001H17.3334V12.6667H18.6667V14.0001ZM18.6667 10.6667H17.3334V9.33341H18.6667V10.6667Z" fill="#AAAAAA"/>
<path d="M6.66667 6.66659C6.84348 6.66659 7.01305 6.59635 7.13807 6.47132C7.2631 6.3463 7.33333 6.17673 7.33333 5.99992V1.99992C7.33333 1.82311 7.2631 1.65354 7.13807 1.52851C7.01305 1.40349 6.84348 1.33325 6.66667 1.33325C6.48986 1.33325 6.32029 1.40349 6.19526 1.52851C6.07024 1.65354 6 1.82311 6 1.99992V5.99992C6 6.17673 6.07024 6.3463 6.19526 6.47132C6.32029 6.59635 6.48986 6.66659 6.66667 6.66659Z" fill="#AAAAAA"/>
<path d="M17.3334 6.66659C17.5102 6.66659 17.6797 6.59635 17.8048 6.47132C17.9298 6.3463 18 6.17673 18 5.99992V1.99992C18 1.82311 17.9298 1.65354 17.8048 1.52851C17.6797 1.40349 17.5102 1.33325 17.3334 1.33325C17.1565 1.33325 16.987 1.40349 16.8619 1.52851C16.7369 1.65354 16.6667 1.82311 16.6667 1.99992V5.99992C16.6667 6.17673 16.7369 6.3463 16.8619 6.47132C16.987 6.59635 17.1565 6.66659 17.3334 6.66659Z" fill="#AAAAAA"/>
</g>
<defs>
<clipPath id="clip0_12_383">
<rect width="24" height="24" fill="white"/>
</clipPath>
</defs>
</svg>
