<svg width="28" height="28" viewBox="0 0 28 28" xmlns="http://www.w3.org/2000/svg">
<path fill-rule="evenodd" clip-rule="evenodd" d="M16.2223 7.33785C15.7858 7.64147 15.2934 7.85483 14.7738 7.96548C14.2543 8.07613 13.7179 8.08186 13.1961 7.98232C12.6743 7.88278 12.1775 7.67998 11.7346 7.38574C11.2918 7.0915 10.9118 6.71173 10.6168 6.26858C10.3219 5.82542 10.1178 5.32777 10.0166 4.80466C9.91544 4.28154 9.91911 3.74345 10.0274 3.22177C10.1357 2.7001 10.3465 2.20529 10.6475 1.76622C10.9485 1.32716 11.3336 0.952627 11.7804 0.66449C12.6626 0.0799367 13.7395 -0.130476 14.7759 0.0792474C15.8122 0.288971 16.7236 0.901771 17.3109 1.7837C17.8982 2.66562 18.1136 3.74493 17.9099 4.7857C17.7063 5.82648 17.1003 6.74405 16.2243 7.33785H16.2223ZM15.1123 2.33383C14.8945 2.17664 14.6474 2.06502 14.3858 2.00562C14.1241 1.94622 13.8531 1.94026 13.5891 1.98808C13.3251 2.03591 13.0733 2.13654 12.8488 2.28399C12.6244 2.43145 12.4318 2.62271 12.2825 2.84638C12.1333 3.07006 12.0304 3.32158 11.98 3.58597C11.9297 3.85036 11.9328 4.12221 11.9894 4.38534C12.0459 4.64847 12.1546 4.8975 12.3091 5.1176C12.4635 5.3377 12.6606 5.52437 12.8884 5.6665C13.3286 5.93479 13.855 6.02233 14.358 5.91091C14.861 5.79948 15.3017 5.49767 15.5883 5.06835C15.875 4.63904 15.9855 4.11531 15.8968 3.60629C15.8082 3.09726 15.5272 2.64218 15.1123 2.33584V2.33383ZM20.3322 2.39403C20.909 2.00478 21.6031 1.8295 22.2948 1.89835C22.9866 1.9672 23.6328 2.27588 24.1221 2.77123C24.4708 3.12386 24.7279 3.55694 24.8709 4.03248C25.0139 4.50802 25.0384 5.01149 24.9422 5.49874C24.8461 5.98599 24.6322 6.44212 24.3194 6.82714C24.0066 7.21216 23.6044 7.51429 23.1481 7.70704C22.6001 7.93691 21.9962 7.99747 21.4136 7.88094C20.8311 7.76441 20.2965 7.47611 19.8782 7.05294C19.5639 6.73596 19.3233 6.35319 19.1736 5.93202C19.0239 5.51085 18.9689 5.06169 19.0125 4.6167C19.0561 4.17171 19.1971 3.74188 19.4256 3.35798C19.6541 2.97407 19.9644 2.64559 20.3342 2.39603L20.3322 2.39403ZM21.2922 5.62437C21.4799 5.81195 21.7343 5.91701 21.9993 5.91645C22.1305 5.91617 22.2604 5.88996 22.3815 5.83933C22.5026 5.7887 22.6126 5.71463 22.7051 5.62136C22.7977 5.52808 22.8711 5.41743 22.921 5.29571C22.971 5.17399 22.9966 5.0436 22.9963 4.91197C22.996 4.78034 22.9699 4.65005 22.9194 4.52855C22.8689 4.40704 22.7951 4.2967 22.7021 4.20382C22.5159 4.01594 22.2642 3.90803 22.0002 3.90286C21.8683 3.90259 21.7376 3.92855 21.6158 3.97925C21.4939 4.02995 21.3833 4.10437 21.2903 4.19822C21.1974 4.29207 21.1238 4.40348 21.074 4.52601C21.0242 4.64854 20.9991 4.77977 21.0002 4.91209C21.0008 5.1793 21.1056 5.43365 21.2922 5.62437ZM4.38064 23.0361H8.00054V25.0526H4.38064C3.74694 25.0468 3.14137 24.7892 2.69668 24.3363C2.25028 23.8816 2.00025 23.269 2.0007 22.6308V18.9992C1.73143 18.9902 1.46679 18.9265 1.22273 18.812C0.978682 18.6975 0.760288 18.5346 0.580738 18.3331C0.389951 18.1392 0.24022 17.9086 0.140549 17.6551C0.0408783 17.4017 -0.00667354 17.1307 0.000753337 16.8583V12.4803C0.00675318 11.5333 0.380743 10.6284 1.04073 9.95624C1.69871 9.29211 2.58868 8.9129 3.52066 8.90688H7.20056C6.7042 9.49992 6.33029 10.186 6.10059 10.9253H3.52066C3.11475 10.937 2.72854 11.1035 2.44069 11.3908C2.15794 11.6825 2.00004 12.0735 2.0007 12.4803V16.9587H4.00065V22.6288C3.99601 22.6835 4.00248 22.7385 4.01967 22.7906C4.03686 22.8427 4.0644 22.8907 4.10064 22.9318C4.18104 22.9941 4.27907 23.0292 4.38064 23.0321V23.0361ZM18.9802 9.95824C18.653 9.62674 18.2637 9.36338 17.8347 9.1833C17.4056 9.00322 16.9454 8.90996 16.4803 8.90888H11.5204C10.5881 8.91636 9.69658 9.2936 9.04051 9.95824C8.38053 10.6304 8.00654 11.5353 8.00054 12.4823V18.8587C7.99771 19.4062 8.20545 19.9337 8.58052 20.3315C8.76029 20.5327 8.97874 20.6954 9.22274 20.8099C9.46675 20.9244 9.73128 20.9882 10.0005 20.9976V25.6585C9.99861 25.9766 10.0595 26.292 10.1796 26.5864C10.2998 26.8808 10.4768 27.1485 10.7005 27.374C11.0605 27.7111 11.5144 27.9298 12.0004 28H16.0003C16.5629 27.9259 17.0782 27.6458 17.4474 27.2136C17.8166 26.7814 18.0135 26.2275 18.0003 25.6585V20.9956C18.2695 20.9865 18.5342 20.9229 18.7782 20.8084C19.0223 20.6939 19.2407 20.531 19.4202 20.3294C19.6109 20.1359 19.7605 19.9056 19.8602 19.6525C19.9599 19.3994 20.0075 19.1288 20.0002 18.8567V12.4803C20.0016 11.5377 19.6355 10.6338 18.9802 9.95824ZM18.0003 18.9571H16.0003V25.6585C15.9984 25.7643 15.9553 25.8651 15.8803 25.9394C15.8462 25.9799 15.8031 26.0119 15.7545 26.0328C15.7059 26.0537 15.6531 26.063 15.6003 26.0598H12.3804C12.2759 26.0549 12.177 26.0111 12.103 25.9368C12.029 25.8626 11.9853 25.7634 11.9804 25.6585V18.9571H10.0005V12.4803C10.0005 12.073 10.1585 11.6818 10.4405 11.3908C10.7283 11.1035 11.1145 10.937 11.5204 10.9253H16.4803C16.7833 10.9307 17.0781 11.0247 17.3286 11.1958C17.579 11.3669 17.7743 11.6076 17.8903 11.8884C17.9664 12.0762 18.0038 12.2776 18.0003 12.4803V18.9571ZM23.6201 25.0506H20.0002V23.0341H23.6001C23.7017 23.0312 23.7997 22.9961 23.8801 22.9338C23.9204 22.8943 23.9519 22.8467 23.9726 22.7941C23.9933 22.7416 24.0026 22.6853 24.0001 22.6288V16.9587H26.0001V12.4803C26.0007 12.0735 25.8428 11.6825 25.5601 11.3908C25.2722 11.1035 24.886 10.937 24.4801 10.9253H21.9002C21.6706 10.186 21.2966 9.49986 20.8002 8.90688H24.4801C25.4122 8.91544 26.3033 9.29252 26.96 9.95624C27.62 10.6284 27.994 11.5333 28 12.4803V16.8583C28 17.4061 27.794 17.9318 27.422 18.329C27.05 18.7283 26.542 18.9671 26.0001 18.9972V22.6288C26.0001 23.2689 25.7501 23.8808 25.3041 24.3343C24.8594 24.7872 24.2538 25.0448 23.6201 25.0506ZM6.00059 1.8844C5.40546 1.8837 4.82369 2.06132 4.32983 2.39449C3.83597 2.72765 3.45254 3.20118 3.22867 3.75438C3.00273 4.30739 2.94408 4.91489 3.06002 5.50112C3.17597 6.08735 3.46137 6.62636 3.88065 7.05094C4.29977 7.47502 4.83539 7.76413 5.41908 7.88134C6.00278 7.99855 6.60805 7.93854 7.15758 7.70897C7.70712 7.4794 8.17596 7.09069 8.50423 6.59251C8.83249 6.09432 9.00528 5.50927 9.00051 4.91209C9.00051 4.10952 8.68452 3.33905 8.12053 2.77123C7.84282 2.4906 7.51258 2.26779 7.14877 2.1156C6.78496 1.9634 6.39476 1.88483 6.00059 1.8844ZM6.00059 5.92132C5.86869 5.92159 5.73805 5.89562 5.61621 5.84493C5.49438 5.79423 5.38377 5.7198 5.29078 5.62595C5.19779 5.53211 5.12427 5.42069 5.07446 5.29816C5.02466 5.17563 4.99956 5.04441 5.00062 4.91209C5.00114 4.64562 5.10647 4.39013 5.29372 4.20115C5.48097 4.01217 5.735 3.90497 6.00059 3.90286C6.26538 3.90754 6.51793 4.01556 6.70463 4.20399C6.89133 4.39241 6.99748 4.64642 7.00057 4.91209C7.00005 5.17855 6.89472 5.43404 6.70747 5.62302C6.52022 5.81201 6.26619 5.91921 6.00059 5.92132Z" fill="currentColor"/>
</svg>
