<svg width="27" height="27" viewBox="0 0 27 27" fill="currentColor" xmlns="http://www.w3.org/2000/svg">
<path d="M27 25.3109V10.1085H25.3125V18.5543H1.6875V3.35191H16.875V1.66276H0V25.3109H5.0625V27H6.75V25.3109H20.25V27H21.9375V25.3109H27ZM25.3125 20.2434V23.6217H21.9375V21.9326H20.25V23.6217H6.75V21.9326H5.0625V23.6217H1.6875V20.2434H25.3125ZM26.9604 7.17888L23.981 4.19648L26.9604 1.20088L25.7739 0.013195L22.7812 2.9956L19.7886 0L18.6021 1.20088L21.5947 4.19648L18.6021 7.19208L19.7886 8.37976L22.7812 5.38416L25.7739 8.37976L26.9604 7.17888Z" fill="currentColor"/>
</svg>
