<svg width="25" height="25" viewBox="0 0 25 25"  xmlns="http://www.w3.org/2000/svg">
<path d="M9.19626 5.16551C8.97874 4.94861 8.71007 4.78998 8.41506 4.70426C8.12005 4.61853 7.80819 4.60848 7.50826 4.67502C7.20834 4.74157 6.93001 4.88257 6.69896 5.085C6.46791 5.28744 6.29159 5.5448 6.18626 5.83333L0.109525 22.544C0.00969916 22.8195 -0.0225459 23.115 0.0154968 23.4056C0.0535394 23.6962 0.160759 23.9735 0.328157 24.2141C0.495554 24.4547 0.718243 24.6516 0.97753 24.7884C1.23682 24.9251 1.52513 24.9977 1.81828 25C2.03412 24.9985 2.24804 24.9594 2.45038 24.8843L19.164 18.8079C19.4527 18.7027 19.7102 18.5265 19.9128 18.2956C20.1155 18.0646 20.2566 17.7864 20.3233 17.4865C20.39 17.1867 20.38 16.8748 20.2944 16.5798C20.2087 16.2848 20.0501 16.0162 19.8331 15.7986L9.19626 5.16551ZM8.2319 20.8148L4.17998 16.7639L5.7035 12.5729L12.4239 19.2917L8.2319 20.8148ZM1.86459 23.1296L3.48536 18.684L6.31592 21.5139L1.86459 23.1296ZM14.3492 18.5926L6.40275 10.6481L7.90775 6.49653L18.4925 17.0787L14.3492 18.5926ZM14.8122 7.40741C14.8296 6.78145 14.9812 6.16651 15.2568 5.60417C15.8704 4.37847 17.0281 3.7037 18.5169 3.7037C19.2925 3.7037 19.7903 3.43866 20.0971 2.86921C20.2586 2.55063 20.3513 2.20164 20.3692 1.84491C20.3701 1.59934 20.4685 1.36419 20.6429 1.1912C20.8172 1.0182 21.0532 0.921533 21.2988 0.922454C21.5444 0.923375 21.7796 1.02181 21.9527 1.19611C22.1257 1.3704 22.2224 1.60628 22.2215 1.85185C22.2215 3.34028 21.2351 5.55556 18.5169 5.55556C17.7412 5.55556 17.2434 5.8206 16.9366 6.39005C16.7751 6.70863 16.6824 7.05762 16.6645 7.41435C16.6641 7.53595 16.6397 7.65626 16.5927 7.76842C16.5457 7.88059 16.4771 7.98241 16.3908 8.06806C16.3045 8.15372 16.2021 8.22154 16.0896 8.26765C15.9771 8.31376 15.8565 8.33726 15.7349 8.33681C15.6133 8.33635 15.4929 8.31195 15.3808 8.26499C15.2686 8.21804 15.1667 8.14946 15.081 8.06315C14.9954 7.97685 14.9275 7.87452 14.8814 7.76201C14.8353 7.6495 14.8118 7.529 14.8122 7.40741ZM12.0338 3.7037V0.925926C12.0338 0.680355 12.1313 0.444842 12.305 0.271197C12.4787 0.0975526 12.7143 0 12.9599 0C13.2056 0 13.4411 0.0975526 13.6148 0.271197C13.7885 0.444842 13.8861 0.680355 13.8861 0.925926V3.7037C13.8861 3.94927 13.7885 4.18479 13.6148 4.35843C13.4411 4.53208 13.2056 4.62963 12.9599 4.62963C12.7143 4.62963 12.4787 4.53208 12.305 4.35843C12.1313 4.18479 12.0338 3.94927 12.0338 3.7037ZM23.8029 13.2338C23.8889 13.3198 23.957 13.4219 24.0035 13.5343C24.05 13.6467 24.0739 13.7671 24.0739 13.8887C24.0738 14.0103 24.0498 14.1307 24.0032 14.2431C23.9566 14.3554 23.8883 14.4575 23.8023 14.5434C23.7163 14.6294 23.6141 14.6975 23.5017 14.744C23.3893 14.7905 23.2689 14.8144 23.1472 14.8143C23.0256 14.8143 22.9051 14.7903 22.7928 14.7437C22.6804 14.6971 22.5783 14.6289 22.4924 14.5428L20.6401 12.691C20.4663 12.5172 20.3686 12.2816 20.3686 12.0359C20.3686 11.7902 20.4663 11.5545 20.6401 11.3808C20.8138 11.207 21.0495 11.1094 21.2953 11.1094C21.5411 11.1094 21.7768 11.207 21.9506 11.3808L23.8029 13.2338ZM24.3667 8.28588L21.5882 9.21181C21.3552 9.28947 21.1008 9.2714 20.8811 9.16156C20.6614 9.05173 20.4943 8.85914 20.4166 8.62616C20.3389 8.39317 20.357 8.13888 20.4669 7.91922C20.5767 7.69956 20.7694 7.53252 21.0024 7.45486L23.7809 6.52894C24.0139 6.45127 24.2683 6.46935 24.488 6.57918C24.7077 6.68901 24.8748 6.8816 24.9525 7.11458C25.0301 7.34757 25.0121 7.60186 24.9022 7.82152C24.7924 8.04118 24.5997 8.20822 24.3667 8.28588Z" fill="currentColor"/>
</svg>
