<svg width="30" height="38" viewBox="0 0 30 38" fill="none" xmlns="http://www.w3.org/2000/svg">
<path d="M18.75 0H3.75C2.75544 0 1.80161 0.400356 1.09835 1.11299C0.395088 1.82563 0 2.79218 0 3.8V34.2C0 35.2078 0.395088 36.1744 1.09835 36.887C1.80161 37.5996 2.75544 38 3.75 38H26.25C27.2446 38 28.1984 37.5996 28.9016 36.887C29.6049 36.1744 30 35.2078 30 34.2V11.4L18.75 0ZM22.125 34.2H18.75L15 27.74L11.25 34.2H7.875L13.3125 25.65L7.875 17.1H11.25L15 23.56L18.75 17.1H22.125L16.6875 25.65L22.125 34.2ZM16.875 13.3V2.85L27.1875 13.3H16.875Z" fill="#006E58"/>
</svg>
