<svg width="32" height="32" viewBox="0 0 32 32" fill="none" xmlns="http://www.w3.org/2000/svg">
<path d="M21 16C21 17.3261 20.4732 18.5979 19.5355 19.5355C18.5979 20.4732 17.3261 21 16 21M11 16C11 14.6739 11.5268 13.4021 12.4645 12.4645C13.4021 11.5268 14.6739 11 16 11M13 24.654C13.9837 24.8822 14.9901 24.9982 16 25C23.18 25 29 19 29 16C29 14.664 27.845 12.732 25.929 11M19.5 7.47C18.359 7.16065 17.1822 7.00262 16 7C8.82 7 3 13 3 16C3 17.32 4.127 19.22 6 20.935M7 25L25 7" stroke="currentColor" stroke-width="2" stroke-linecap="round" stroke-linejoin="round"/>
</svg>
