<svg width="32" height="32" viewBox="0 0 32 32" fill="none" xmlns="http://www.w3.org/2000/svg">
<path d="M29 16C29 19 23.18 25 16 25C8.82 25 3 19 3 16C3 13 8.82 7 16 7C23.18 7 29 13 29 16Z" stroke="currentColor" stroke-width="2" stroke-linejoin="round"/>
<path d="M21 16C21 17.3261 20.4732 18.5979 19.5355 19.5355C18.5979 20.4732 17.3261 21 16 21C14.6739 21 13.4021 20.4732 12.4645 19.5355C11.5268 18.5979 11 17.3261 11 16C11 14.6739 11.5268 13.4021 12.4645 12.4645C13.4021 11.5268 14.6739 11 16 11C17.3261 11 18.5979 11.5268 19.5355 12.4645C20.4732 13.4021 21 14.6739 21 16Z" stroke="currentColor" stroke-width="2" stroke-linejoin="round"/>
</svg>
