<svg width="20" height="21" viewBox="0 0 20 21" fill="currentColor" xmlns="http://www.w3.org/2000/svg">
<path d="M11.8846 0.827234C11.4546 0.457163 10.9088 0.253967 10.3445 0.253967C9.78021 0.253967 9.23433 0.457163 8.80442 0.827234L1.67108 6.96648C1.40852 7.19249 1.19761 7.47359 1.05297 7.79032C0.90832 8.10704 0.833393 8.45182 0.833374 8.80077V18.4019C0.833374 18.8931 1.02608 19.3642 1.36909 19.7115C1.71211 20.0588 2.17734 20.254 2.66243 20.254H6.32055C6.80565 20.254 7.27088 20.0588 7.61389 19.7115C7.95691 19.3642 8.14961 18.8931 8.14961 18.4019V13.2161C8.14961 13.1179 8.18815 13.0236 8.25676 12.9542C8.32536 12.8847 8.41841 12.8457 8.51542 12.8457H11.8077C11.9048 12.8457 11.9978 12.8847 12.0664 12.9542C12.135 13.0236 12.1735 13.1179 12.1735 13.2161V18.4019C12.1735 18.8931 12.3662 19.3642 12.7093 19.7115C13.0523 20.0588 13.5175 20.254 14.0026 20.254H18.0265C18.5116 20.254 18.9769 20.0588 19.3199 19.7115C19.6629 19.3642 19.8556 18.8931 19.8556 18.4019V8.80077C19.8556 8.45182 19.7806 8.10704 19.636 7.79032C19.4914 7.47359 19.2804 7.19249 19.0179 6.96648L11.8846 0.827234Z" fill="currentColor"/>
</svg>
