<svg width="30" height="34" viewBox="0 0 30 34" fill="none" xmlns="http://www.w3.org/2000/svg">
<path fill-rule="evenodd" clip-rule="evenodd" d="M29.75 9.5625V29.75C29.75 30.8772 29.3022 31.9582 28.5052 32.7552C27.7082 33.5522 26.6272 34 25.5 34V31.875C26.0636 31.875 26.6041 31.6511 27.0026 31.2526C27.4011 30.8541 27.625 30.3136 27.625 29.75V9.5625H23.375C22.5296 9.5625 21.7189 9.22668 21.1211 8.6289C20.5233 8.03113 20.1875 7.22038 20.1875 6.375V2.125H8.5C7.93641 2.125 7.39591 2.34888 6.9974 2.7474C6.59888 3.14591 6.375 3.68641 6.375 4.25V23.375H4.25V4.25C4.25 3.12283 4.69777 2.04183 5.4948 1.2448C6.29183 0.447767 7.37283 0 8.5 0L20.1875 0L29.75 9.5625ZM3.39363 25.1813H0V33.6791H1.66175V30.5107H3.1705L4.658 33.6791H8.16638L8.8315 31.4946H11.6705L12.3378 33.6791H14.1227L11.2837 25.1813H9.31813L6.494 33.5963L4.83012 30.2558C5.29856 30.0612 5.69699 29.7292 5.9728 29.3035C6.24862 28.8778 6.38886 28.3785 6.375 27.8715C6.375 27.3275 6.256 26.8536 6.02012 26.452C5.78361 26.045 5.42952 25.7191 5.00437 25.517C4.5012 25.2804 3.94944 25.1654 3.39363 25.1813ZM1.66175 29.2464V26.5009H3.14925C3.54085 26.4828 3.92508 26.6116 4.22662 26.8621C4.50287 27.1023 4.63888 27.4486 4.63888 27.9034C4.63888 28.3496 4.50075 28.6854 4.22662 28.9106C3.95675 29.1337 3.58912 29.2464 3.12587 29.2464H1.66175ZM10.2956 26.8069L11.3348 30.243H9.18L10.2212 26.8069H10.2956ZM18.8084 27.7525L17.2359 33.6791H15.6846L13.4428 25.1813H15.2596L16.5368 31.3501H16.6175L18.1178 25.1813H19.5691L21.0694 31.3501H21.1544L22.4209 25.1813H24.2441L22.0023 33.6791H20.451L18.8785 27.7525H18.8084Z" fill="#006E58"/>
</svg>
