<svg width="19" height="19" viewBox="0 0 19 19" fill="currentColor" xmlns="http://www.w3.org/2000/svg">
<path d="M17.8848 16.8485L14.5415 13.515C15.6202 12.1408 16.2055 10.4437 16.2033 8.69667C16.2033 7.14079 15.7419 5.61985 14.8775 4.32619C14.0131 3.03252 12.7845 2.02423 11.3471 1.42882C9.90965 0.83341 8.32792 0.677624 6.80194 0.981161C5.27595 1.2847 3.87424 2.03393 2.77407 3.1341C1.6739 4.23427 0.924667 5.63598 0.62113 7.16196C0.317593 8.68795 0.473379 10.2697 1.06879 11.7071C1.6642 13.1446 2.67249 14.3732 3.96616 15.2376C5.25983 16.102 6.78077 16.5633 8.33665 16.5633C10.0837 16.5655 11.7807 15.9802 13.155 14.9015L16.4885 18.2448C16.5799 18.337 16.6887 18.4102 16.8085 18.4601C16.9283 18.51 17.0568 18.5357 17.1867 18.5357C17.3165 18.5357 17.445 18.51 17.5648 18.4601C17.6846 18.4102 17.7934 18.337 17.8848 18.2448C17.977 18.1534 18.0501 18.0447 18.1001 17.9248C18.15 17.805 18.1757 17.6765 18.1757 17.5467C18.1757 17.4169 18.15 17.2883 18.1001 17.1685C18.0501 17.0487 17.977 16.9399 17.8848 16.8485ZM2.43664 8.69667C2.43664 7.52976 2.78267 6.38906 3.43097 5.41881C4.07927 4.44856 5.00073 3.69234 6.07881 3.24578C7.1569 2.79923 8.34319 2.68239 9.48768 2.91004C10.6322 3.13769 11.6834 3.69961 12.5086 4.52474C13.3337 5.34987 13.8956 6.40115 14.1233 7.54564C14.3509 8.69013 14.2341 9.87642 13.7875 10.9545C13.341 12.0326 12.5848 12.954 11.6145 13.6023C10.6443 14.2506 9.50356 14.5967 8.33665 14.5967C6.77187 14.5967 5.27118 13.9751 4.16471 12.8686C3.05825 11.7621 2.43664 10.2614 2.43664 8.69667Z" fill="currentColor"/>
</svg>
